<?xml version="1.0" encoding="UTF-8"?>
<!-- Generator: IcoMoon.io -->
<!DOCTYPE svg PUBLIC "-//W3C//DTD SVG 1.1//EN" "http://www.w3.org/Graphics/SVG/1.1/DTD/svg11.dtd">
<svg viewBox="0 0 512 512" xmlns="http://www.w3.org/2000/svg" xmlns:xlink="http://www.w3.org/1999/xlink" fill="#ffffff">
  <g class="svgGrid" id="svgGrid">
    <rect x="0" y="0" width="512" height="512" fill="none" stroke-width="1" stroke="#B35047"/>
  </g>
  <path d="M 160.00,464.00c-61.856,0.00-112.00-50.145-112.00-112.00c0.00-43.848, 25.20-81.803, 61.903-100.19l-21.47-42.938C 36.001,235.14,0.00,289.361,0.00,352.00 c0.00,88.366, 71.634,160.00, 160.00,160.00s 160.00-71.634, 160.00-160.00l-48.00,0.00 C 272.00,413.855, 221.856,464.00, 160.00,464.00zM 480.00,352.00L 448.00,384.00L 338.743,274.745L 224.00,274.745L 224.00,224.00L 352.00,224.00L 352.00,192.00L 224.00,192.00L 224.00,128.00L 160.00,128.00L 160.00,320.00L 320.00,320.00L 448.00,448.00L 512.00,384.00 zM 144.00,48.00A48.00,48.00 12240.00 1,0 240.00,48A48.00,48.00 12240.00 1,0 144.00,48z"/>
</svg>
